HIERARCHY
ROOT Spine
{
    OFFSET 0.0 0.0 -0.0
    CHANNELS 6 Xposition Yposition Zposition Zrotation Xrotation Yrotation
    JOINT ShoulderCenter
    {
        OFFSET 0.0 34.94607925415039 0.0
        CHANNELS 3 Zrotation Xrotation Yrotation
        JOINT LeftShoulder
        {
            OFFSET 18.58734893798828 0.0 0.0
            CHANNELS 3 Zrotation Xrotation Yrotation
            JOINT LeftElbow
            {
                OFFSET 29.715782165527344 0.0 0.0
                CHANNELS 3 Zrotation Xrotation Yrotation
                JOINT LeftHand
                {
                    OFFSET 33.011051177978516 0.0 0.0
                    CHANNELS 3 Zrotation Xrotation Yrotation
                    End Site
                    {
                        OFFSET 13.204421043395996 0.0 0.0
                    }
                }
            }
        }
        JOINT RightShoulder
        {
            OFFSET -18.58734893798828 0.0 0.0
            CHANNELS 3 Zrotation Xrotation Yrotation
            JOINT RightElbow
            {
                OFFSET -29.715782165527344 0.0 0.0
                CHANNELS 3 Zrotation Xrotation Yrotation
                JOINT RightHand
                {
                    OFFSET -33.011051177978516 0.0 0.0
                    CHANNELS 3 Zrotation Xrotation Yrotation
                    End Site
                    {
                        OFFSET -13.204421043395996 0.0 0.0
                    }
                }
            }
        }
        End Site
        {
            OFFSET 0.0 13.978432655334473 0.0
        }
    }
    JOINT LeftHip
    {
        OFFSET 17.51252671325521 -17.51252671325521 0.0
        CHANNELS 3 Zrotation Xrotation Yrotation
        JOINT LeftKnee
        {
            OFFSET 0.0 -41.609214782714844 0.0
            CHANNELS 3 Zrotation Xrotation Yrotation
            JOINT LeftFoot
            {
                OFFSET 0.0 -44.24072265625 0.0
                CHANNELS 3 Zrotation Xrotation Yrotation
                End Site
                {
                    OFFSET 0.0 0.0 17.6962890625
                }
            }
        }
    }
    JOINT RightHip
    {
        OFFSET -17.51252671325521 -17.51252671325521 0.0
        CHANNELS 3 Zrotation Xrotation Yrotation
        JOINT RightKnee
        {
            OFFSET 0.0 -41.609214782714844 0.0
            CHANNELS 3 Zrotation Xrotation Yrotation
            JOINT RightFoot
            {
                OFFSET 0.0 -44.24072265625 0.0
                CHANNELS 3 Zrotation Xrotation Yrotation
                End Site
                {
                    OFFSET 0.0 0.0 17.6962890625
                }
            }
        }
    }
}
MOTION
Frames: 12
Frame Time: 0.03333333333333333
23.19999885559082 11.200000762939453 -39.39999771118164 -0.795727501327081 34.50594259993491 -25.08422538792446 1.1150626636952623e-06 -3.030682710029613e-06 -8.884501037620572 124.12137254960302 -37.642632040669454 -138.97069694213968 1.4429200198301455e-06 -2.392307509401312e-07 40.18509982646938 0.0 0.0 3.1805546814635168e-15 -158.59183536352094 -25.292236214261752 169.89775546899403 8.848313377519026e-07 -4.05533421980211e-06 -116.50117377933962 2.3854160110976376e-15 -6.3611093629270335e-15 1.3241718894150476e-31 26.173010643397966 -40.56174146843036 58.70732643368228 12.736674283568668 5.1356466338327875 -36.65220419235178 0.0 0.0 -1.3914926731402886e-15 15.572715777040662 -33.90623280156944 -10.507519159372837 3.178918495893128 -11.418510399820535 -15.551263685136748 -9.939233379573492e-17 -1.5902773407317582e-15 -1.7145177579764267e-15
23.19999885559082 11.200000762939453 -39.29999923706055 -0.7957266359923224 34.3706373028363 -25.190064186422465 9.357234234086156e-07 -1.8943519318918641e-06 -8.773611033533923 122.89872035470583 -37.0477923872169 -140.41517245611365 -1.9858383967567312e-06 4.646241610112543e-06 40.98628042088464 1.5902773407317584e-15 8.827812596100317e-32 6.3611093629270335e-15 -158.663819681059 -25.48647291151585 169.94049196352486 -2.182417273537525e-07 5.466600011698905e-06 -116.64143566941047 0.0 0.0 0.0 26.150525180121456 -40.405139535483436 59.380875767761864 12.790261128360363 4.998746614150153 -35.71711816006846 0.0 0.0 -3.7272125173400585e-16 15.561542258202705 -33.759830818352874 -10.806969879279032 3.4401499841815557 -11.442018484580137 -15.222753501058529 -2.4848083448933725e-16 2.4848083448933737e-17 -6.311413196029166e-15
23.19999885559082 11.200000762939453 -39.29999923706055 -0.5988900896766163 34.60015760059074 -25.25471773291335 6.704192136553519e-08 -2.8090998372260067e-06 -8.905590884890342 123.55882004535661 -37.3006140200417 -140.00937442559606 -2.4289278237400137e-06 2.561815405891041e-06 41.2901124460042 -3.531125038440127e-31 -6.3611093629270335e-15 -6.3611093629270335e-15 -158.93365859990962 -25.490713131151566 169.81602551843946 3.4284886653407937e-06 1.5404738088921798e-06 -116.81782701680322 2.3854160110976376e-15 0.0 0.0 26.169989617840784 -40.67418986212379 59.48616782779617 12.771045956549559 5.014542430301361 -35.726427780371566 -1.5902773407317584e-15 -1.7241821476758433e-32 1.2424041724466863e-15 15.532119512027622 -34.03901745387377 -10.771912361099883 3.4401499841815557 -11.442018484580137 -15.222753501058529 -2.4848083448933725e-16 2.4848083448933737e-17 -6.311413196029166e-15
23.19999885559082 11.200000762939453 -39.29999923706055 -0.3992684040349384 34.73600556340783 -25.335883832892605 -1.3920021325168587e-06 1.1892105842576387e-06 -8.769037609613205 123.58378141691081 -37.17789935931984 -139.7845273315782 1.265567726505119e-06 1.3982833088474711e-06 41.47001157221472 0.0 6.3611093629270335e-15 0.0 -159.6138463104766 -26.065805686936358 170.0374515623932 3.7804742074144327e-06 -3.209877529709376e-06 -117.58294591835512 4.770832022195275e-15 -6.3611093629270335e-15 6.3611093629270335e-15 26.02600312881856 -40.75337316735972 59.1535708649197 12.647219111632774 4.834393767206505 -34.46948384955615 -8.082103817230515e-33 -4.969616689786745e-16 -1.8636062586700292e-15 15.45552069049817 -34.23363173710753 -10.747332673757462 3.4401499841815557 -11.442018484580137 -15.222753501058529 -2.4848083448933725e-16 2.4848083448933737e-17 -6.311413196029166e-15
23.19999885559082 11.200000762939453 -39.29999923706055 -0.39926939008748397 34.87060232693942 -25.31549672393616 -2.0641167971715319e-07 2.0369928214487443e-06 -8.794747466589936 122.44879413840876 -36.46528743887092 -140.53088385703992 8.978376732626354e-07 -7.37000933481716e-07 41.83265619790361 3.1805546814635168e-15 0.0 0.0 -159.37682736086506 -25.731595589931576 170.17476360531177 4.5078794545171604e-07 -2.120429756887696e-06 -117.66571061789882 1.590277340731758e-15 0.0 0.0 25.967428231821472 -40.95085349771156 58.95258115118671 12.878571891022258 4.759303574940424 -34.46586285036569 1.5902773407317584e-15 9.939233379573489e-17 -7.20594420019078e-16 15.52185932207281 -34.35632126268178 -10.731785333276866 3.4401499841815557 -11.442018484580137 -15.222753501058529 -2.4848083448933725e-16 2.4848083448933737e-17 -6.311413196029166e-15
23.100000381469727 11.200000762939453 -39.20000076293945 -0.5988874288328281 34.73519658685868 -25.3716381362801 7.598321384046605e-07 2.922177481059394e-07 -8.615168601276944 122.64659407697235 -36.61526841134614 -140.3522637756465 -1.659336997816251e-06 -3.0429490288110096e-07 41.60206224433432 -3.1805546814635168e-15 -8.827812596100317e-32 3.1805546814635168e-15 -159.61237024357465 -25.708380998711295 170.11837142691073 -3.900244228098635e-06 4.643361469685933e-06 -117.44708658260329 5.5659706925611536e-15 0.0 0.0 26.26239718446366 -40.623789249251935 59.90661462615841 12.81662875360826 4.641916818992778 -33.643095292058355 -3.232841526892206e-34 -9.93923337957349e-17 -3.7272125173400585e-16 15.83433369216419 -34.05670120908157 -10.672934919717248 3.3607776810514207 -11.489900823824101 -15.132309938558887 4.9696166897867406e-17 1.6151254241806917e-15 2.7084410959337755e-15
23.100000381469727 11.200000762939453 -39.20000076293945 -0.600980450207295 34.9636408229568 -25.27494443543511 -7.728175487770135e-07 7.474914733049624e-07 -8.98645751557966 122.90623665066896 -36.44418426686134 -140.2313235996567 -1.994455289933121e-06 7.18518572880248e-07 41.38225550823293 3.1805546814635168e-15 -8.827812596100317e-32 -3.1805546814635168e-15 -160.20393080427507 -25.878600526243286 169.40669883788388 -2.5305575371310546e-06 -1.8604927293069046e-06 -117.07429328155008 1.5902773407317584e-15 -8.827812596100317e-32 -6.3611093629270335e-15 26.493752148293733 -40.981484793195776 61.15556220753613 12.976510286089377 4.527806957709704 -33.166242739911475 1.590277340731758e-15 9.939233379573487e-17 -4.969616689786744e-17 15.90944472528081 -34.280734089256335 -10.715942263884504 3.3671148135680675 -11.522026005850154 -15.168777658956907 6.957463365701443e-16 -8.825657368415722e-33 -1.453612881762623e-15
23.100000381469727 11.200000762939453 -39.20000076293945 -0.4006620547573944 34.96446330721073 -25.378415398946316 6.164636428618375e-07 -9.203677502387631e-08 -9.07518693247304 121.86122338635289 -35.99336668214463 -140.8364039753937 9.915626136042856e-07 -1.301056945739015e-06 41.42426972320487 0.0 0.0 3.180554681463516e-15 -160.5770320586973 -26.09728247328008 169.36340534603602 -1.1456198328204438e-06 -2.0091427720503676e-06 -116.85906018809806 1.5902773407317584e-15 0.0 0.0 26.217574973312548 -41.1298606831717 60.92694280687914 13.20451911260052 4.448224338373016 -33.10748841294671 -9.483001812217137e-34 -3.975693351829397e-16 -2.73328917938271e-16 15.76719668209967 -34.352099146098645 -10.705681325962106 3.3671148135680675 -11.522026005850154 -15.168777658956907 6.957463365701443e-16 -8.825657368415722e-33 -1.453612881762623e-15
23.100000381469727 11.200000762939453 -39.20000076293945 -0.40066023778311954 35.09878739599677 -25.476006293112306 -8.348180516089145e-07 1.6902092777990377e-06 -8.715715511852526 122.49765874021229 -36.24801500301333 -140.26785871250675 -1.2289536506546305e-06 -2.4918398480574358e-06 41.47520505827969 -1.5902773407317584e-15 4.4139062980501586e-32 -3.1805546814635168e-15 -160.3020306085517 -26.021869374852134 169.9469969854065 -1.9158365780770125e-06 -1.4022714119872138e-06 -116.76919161424635 7.951386703658792e-16 0.0 0.0 26.545326865189043 -41.11520348963711 61.667519813050454 13.116729896274524 4.401274475902693 -33.753780260147025 -1.5902773407317584e-15 -9.939233379573492e-17 8.199867538148129e-16 15.911812244495957 -34.44216554418002 -10.55177536047688 3.3671148135680675 -11.522026005850154 -15.168777658956907 6.957463365701443e-16 -8.825657368415722e-33 -1.453612881762623e-15
23.100000381469727 11.200000762939453 -39.20000076293945 -0.40066023778311954 35.09878739599677 -25.476006293112306 -8.348180516089145e-07 1.6902092777990377e-06 -8.715715511852526 122.32808872096724 -36.01240899268594 -140.5504599563598 6.7407547797136645e-06 -3.6091922808694214e-06 41.60299985434201 0.0 0.0 -6.3611093629270335e-15 -160.02446068206578 -25.871941781808534 170.22143553406787 -3.3140739240820174e-07 3.853246631772078e-06 -116.67932355915974 7.951386703658792e-16 0.0 0.0 26.545326865189043 -41.11520348963711 61.667519813050454 13.116729896274524 4.401274475902693 -33.753780260147025 -1.5902773407317584e-15 -9.939233379573492e-17 8.199867538148129e-16 15.911812244495957 -34.44216554418002 -10.55177536047688 3.3671148135680675 -11.522026005850154 -15.168777658956907 6.957463365701443e-16 -8.825657368415722e-33 -1.453612881762623e-15
23.100000381469727 11.200000762939453 -39.20000076293945 -0.20033171729334068 35.09928094702886 -25.463155818538883 -7.265742450149825e-08 -2.145879834325743e-06 -8.848227466055409 123.00220586240107 -36.2905615295525 -140.18123472966877 1.9137246714494325e-07 6.247862576998491e-06 41.9671918374927 1.7655625192200634e-31 6.3611093629270335e-15 -3.1805546814635168e-15 -159.7265514043523 -25.50007125036823 170.17241068032237 5.985315512203224e-06 -2.8506109398841574e-06 -116.34912064617991 4.770832022195275e-15 2.648343778830095e-31 6.3611093629270335e-15 26.22158496639943 -41.12752980902417 61.15253096760602 12.970404457886303 4.241525427468324 -32.43136701156918 1.5902773407317582e-15 -5.172546443027529e-33 -3.7272125173400585e-16 15.692676538911979 -34.54528245785985 -10.406670147474877 3.4091472646715175 -11.459797166275289 -14.995353786816477 5.963540027744092e-16 -2.4848083448933712e-17 8.758949415749135e-16
23.100000381469727 11.200000762939453 -39.20000076293945 -0.2003318116804298 35.09927893274574 -25.12386913325225 -6.48039114459224e-07 -7.575661362702585e-07 -9.187513823373306 124.0392545708778 -36.927195623398944 -139.70011983694522 -2.700839652286544e-06 2.3926392167224934e-06 41.976801776366166 3.1805546814635168e-15 -8.827812596100317e-32 -3.1805546814635168e-15 -159.33116890524565 -25.390238917772013 170.34278974045353 4.556082152603925e-06 3.3905826804342294e-06 -116.54178740467955 -3.1805546814635168e-15 0.0 0.0 25.93021826973155 -41.254049451132346 60.22515372878705 12.80390320004249 4.386558643536559 -31.725119285328386 0.0 0.0 1.1927080055488186e-15 15.467295635207194 -34.63641330345091 -10.751193892094292 3.2142490666901136 -11.417605442942316 -15.18853721949995 -9.93923337957349e-17 1.5405811738338907e-15 1.515733090384957e-15
